<svg width="31" height="31" viewBox="0 0 31 31" fill="none" xmlns="http://www.w3.org/2000/svg">
<path d="M28.856 13.7472L28.8463 13.7429L2.98799 3.01766C2.77049 2.92662 2.53382 2.89092 2.29915 2.91374C2.06448 2.93657 1.83912 3.0172 1.64324 3.14844C1.43629 3.28404 1.2663 3.46897 1.14856 3.68659C1.03082 3.9042 0.969032 4.14767 0.96875 4.3951V11.2545C0.968865 11.5927 1.08697 11.9203 1.30272 12.1808C1.51846 12.4413 1.81833 12.6184 2.15063 12.6815L16.2538 15.2893C16.3092 15.2998 16.3592 15.3293 16.3952 15.3728C16.4312 15.4162 16.4509 15.4708 16.4509 15.5272C16.4509 15.5837 16.4312 15.6383 16.3952 15.6817C16.3592 15.7252 16.3092 15.7547 16.2538 15.7652L2.15123 18.373C1.81902 18.4359 1.51918 18.6128 1.30334 18.873C1.0875 19.1333 0.969174 19.4607 0.96875 19.7988V26.6594C0.96859 26.8957 1.02709 27.1283 1.139 27.3363C1.25091 27.5444 1.41273 27.7215 1.60994 27.8516C1.84716 28.0092 2.12556 28.0934 2.41037 28.0938C2.60837 28.0936 2.80434 28.0539 2.98678 27.9769L28.8445 17.3128L28.856 17.3073C29.2041 17.1577 29.5007 16.9094 29.7091 16.593C29.9175 16.2766 30.0285 15.9061 30.0285 15.5272C30.0285 15.1484 29.9175 14.7779 29.7091 14.4615C29.5007 14.1451 29.2041 13.8968 28.856 13.7472Z" fill="#9139D3"/>
</svg>
