<svg width="591" height="476" viewBox="0 0 591 476" fill="none" xmlns="http://www.w3.org/2000/svg">
<g clip-path="url(#clip0_138_26)">
<path d="M293.5 0.691361C285.126 2.10075 277.658 6.27572 272.591 12.3919C269.15 16.5137 267.15 20.5557 265.55 26.539C264.777 29.4907 264.723 29.9162 264.723 34.5698C264.723 39.1437 264.777 39.6489 265.443 41.8827C266.457 45.2067 268.724 49.6742 270.884 52.5195C274.218 56.9072 279.765 61.9863 286.352 66.64L288.833 68.3951V94.0299V119.665H247.041C207.463 119.665 199.676 119.771 191.622 120.463C183.647 121.154 175.166 122.563 166.819 124.584C107.052 139.024 59.0467 183.699 39.6579 242.92C31.1503 268.847 28.75 295.971 32.5637 322.829C36.2442 348.81 45.7119 373.673 60.4069 395.958C75.2352 418.428 96.3043 438.345 119.48 451.854C143.723 465.975 169.166 473.607 197.622 475.255C206.157 475.761 391.591 475.761 397.112 475.255C436.076 471.745 472 456.348 500.563 430.9C504.83 427.097 513.071 418.774 516.485 414.838C539.554 388.113 553.849 356.415 558.596 321.473C559.877 312.006 560.437 296.689 559.823 287.461C559.05 275.894 557.476 265.629 554.863 254.886C539.448 191.969 491.335 142.853 428.715 126.1C407.939 120.542 390.817 119.053 354.6 119.638C345.052 119.798 331.077 119.851 323.583 119.745L309.902 119.585V93.631V67.6771L311.955 66.6134C321.37 61.6938 328.597 54.6469 331.237 47.8127C333.051 43.1325 333.211 42.1752 333.211 35.7664C333.238 30.8735 333.131 29.3843 332.651 26.6719C331.344 19.5452 328.89 14.8916 323.77 9.99862C318.596 5.05247 312.355 1.88801 305.448 0.664768C302.568 0.186108 296.487 0.18611 293.5 0.691361ZM340.972 174.179C388.257 174.551 408.766 174.87 413.567 175.375C436.343 177.769 458.052 188.219 475.494 205.159C493.896 223.055 505.55 245.978 508.457 269.911C509.604 279.59 509.924 300.917 509.044 309.799C507.177 328.254 503.257 340.646 494.883 354.66C476.507 385.427 450.931 403.616 418.581 408.988C409.433 410.503 407.379 410.583 379.91 410.849C365.988 411.009 329.904 411.035 299.767 410.956L244.961 410.796L219.758 436.856L194.555 462.917L194.422 437.362L194.289 411.806L193.302 411.594C192.742 411.487 188.661 410.902 184.234 410.317C171.166 408.589 167.086 407.711 159.218 405.025C141.163 398.883 124.521 387.98 112.253 374.258C96.5443 356.734 87.0766 335.381 84.4096 311.66C83.6895 305.278 83.3695 292.594 83.7162 284.616C84.6763 261.534 89.0234 245.738 98.8646 229.544C111.426 208.855 127.161 193.963 146.017 184.922C156.658 179.816 167.752 176.758 180.554 175.375C190.715 174.285 273.844 173.673 340.972 174.179Z" fill="#9139D3"/>
<path d="M217.758 223.401C206.957 224.863 199.276 231.91 196.529 242.866C195.782 245.898 195.329 260.816 195.702 270.176C196.022 277.649 196.396 279.643 198.289 283.659C199.703 286.664 200.663 288.046 202.903 290.44C206.263 294.003 210.931 296.503 215.891 297.433C219.091 298.045 224.559 297.859 227.626 297.035C235.467 294.96 241.254 289.589 244.401 281.478C246.161 276.878 246.268 275.92 246.268 260.47C246.294 245.366 246.241 244.754 244.641 240.26C241.601 231.804 235.173 225.874 226.906 223.906C224.265 223.268 220.265 223.055 217.758 223.401Z" fill="#9139D3"/>
<path d="M369.935 223.401C368.975 223.507 367.348 223.88 366.335 224.199C357.694 226.805 351.666 233.16 349.026 242.467C348.466 244.462 348.439 244.887 348.439 260.337V276.16L349.16 278.713C351.773 288.206 358.174 294.748 367.295 297.221C369.909 297.939 376.763 297.886 379.83 297.088C382.977 296.317 385.11 295.386 387.671 293.684C392.364 290.599 395.725 285.706 397.218 279.75C398.658 273.979 399.432 263.661 398.978 255.79C398.338 244.116 397.085 238.745 393.911 233.931C388.924 226.273 379.536 222.151 369.935 223.401Z" fill="#9139D3"/>
<path d="M21.0691 263.289C10.5079 266.108 2.80037 275.256 0.666792 287.488C-0.560013 294.375 0.693462 304.56 3.57379 311.394C7.30754 320.196 13.975 325.595 21.9492 326.206L24.0028 326.366V294.535C24.0028 264.406 23.9761 262.731 23.5494 262.757C23.2827 262.757 22.1625 262.997 21.0691 263.289Z" fill="#9139D3"/>
<path d="M567.317 294.827L567.397 326.685L568.331 326.605C569.931 326.419 573.691 325.249 575.612 324.265C578.279 322.935 579.665 321.925 581.959 319.665C587.133 314.532 590.12 307.113 590.707 297.886C591.32 288.631 589.4 280.202 585.266 274.032C582.732 270.203 579.532 267.358 575.638 265.416C573.585 264.379 569.131 262.997 567.851 262.997H567.264L567.317 294.827Z" fill="#9139D3"/>
</g>
<defs>
<clipPath id="clip0_138_26">
<rect width="591" height="476" fill="white"/>
</clipPath>
</defs>
</svg>
