<svg width="161" height="39" viewBox="0 0 161 39" fill="none" xmlns="http://www.w3.org/2000/svg">
<path d="M65.319 23.63C67.426 22.8215 68.6265 21.0085 68.6265 18.5585C68.6265 15.0305 66.201 12.85 62.183 12.85H55.666V30H60.2475V23.924L64.3145 30H69.3615V29.4855L65.319 23.63ZM60.223 17.064H62.0605C63.31 17.064 64.045 17.7255 64.045 18.926C64.045 20.1265 63.31 20.7635 62.0605 20.7635H60.223V17.064ZM77.2243 30.294C81.3648 30.294 84.3538 27.452 84.3538 23.5075C84.3538 19.5385 81.3648 16.721 77.2243 16.721C73.0838 16.721 70.0948 19.5385 70.0948 23.5075C70.0948 27.452 73.0838 30.294 77.2243 30.294ZM77.2243 26.3495C75.6318 26.3495 74.4313 25.1735 74.4313 23.5075C74.4313 21.8415 75.6318 20.6655 77.2243 20.6655C78.8413 20.6655 80.0173 21.8415 80.0173 23.5075C80.0173 25.1735 78.8413 26.3495 77.2243 26.3495ZM97.6977 20.9595C98.7022 20.151 99.2902 18.9015 99.2902 17.505C99.2902 14.712 97.2077 12.85 94.1697 12.85H86.7217V30H94.2922C97.7467 30 99.9762 28.0155 99.9762 25.0755C99.9762 23.336 99.1187 21.817 97.6977 20.9595ZM93.4347 16.623C94.3902 16.623 94.9292 17.1375 94.9292 18.0195C94.9292 18.877 94.3902 19.367 93.4347 19.367H91.1072V16.623H93.4347ZM91.1072 26.0555V22.9685H93.9002C94.8557 22.9685 95.4192 23.5565 95.4192 24.512C95.4192 25.443 94.8557 26.0555 93.9002 26.0555H91.1072ZM108.447 30.294C112.588 30.294 115.577 27.452 115.577 23.5075C115.577 19.5385 112.588 16.721 108.447 16.721C104.307 16.721 101.318 19.5385 101.318 23.5075C101.318 27.452 104.307 30.294 108.447 30.294ZM108.447 26.3495C106.855 26.3495 105.654 25.1735 105.654 23.5075C105.654 21.8415 106.855 20.6655 108.447 20.6655C110.064 20.6655 111.24 21.8415 111.24 23.5075C111.24 25.1735 110.064 26.3495 108.447 26.3495ZM122.82 30.294C126.324 30.294 128.651 28.579 128.651 26.0065C128.651 23.6545 127.01 22.2825 123.702 21.915C121.938 21.719 121.326 21.425 121.326 20.8125C121.326 20.298 121.816 20.004 122.673 20.004C123.604 20.004 124.168 20.3225 124.241 20.9595H128.333C128.186 18.4605 125.907 16.721 122.722 16.721C119.292 16.721 117.087 18.4115 117.087 20.984C117.087 23.2625 118.729 24.61 122.061 25.002C123.849 25.2225 124.364 25.4675 124.364 26.08C124.364 26.619 123.776 26.9865 122.869 26.9865C121.865 26.9865 121.252 26.5945 121.203 25.884H116.94C117.063 28.6035 119.292 30.294 122.82 30.294ZM136.94 30.294C140.615 30.294 143.31 27.991 143.775 24.61H139.586C139.145 25.6635 138.238 26.3495 137.013 26.3495C135.372 26.3495 134.269 25.198 134.269 23.5075C134.269 21.817 135.372 20.6655 137.013 20.6655C138.189 20.6655 139.169 21.327 139.586 22.3805H143.751C143.285 18.9995 140.59 16.721 136.94 16.721C132.848 16.721 129.957 19.5385 129.957 23.5075C129.957 27.452 132.848 30.294 136.94 30.294ZM154.021 16.77C152.527 16.77 151.204 17.2845 150.248 18.2645V12.85H145.912V30H150.248V22.944C150.248 21.474 151.179 20.641 152.6 20.641C153.874 20.641 154.585 21.425 154.585 22.8705V30H158.946V22.3805C158.946 18.9995 157.378 16.77 154.021 16.77Z" fill="#9139D3"/>
<g clip-path="url(#clip0_161_6)">
<path d="M22.2123 0.0522957C21.5785 0.15889 21.0133 0.474644 20.6299 0.937214C20.3695 1.24894 20.2181 1.55464 20.097 2.00716C20.0385 2.2304 20.0344 2.26258 20.0344 2.61453C20.0344 2.96045 20.0385 2.99867 20.0889 3.16761C20.1656 3.419 20.3372 3.75688 20.5007 3.97207C20.753 4.30392 21.1728 4.68805 21.6713 5.04001L21.859 5.17274V7.11152V9.05029H18.6962C15.701 9.05029 15.1116 9.05833 14.5021 9.11062C13.8986 9.16291 13.2567 9.2695 12.625 9.42235C8.10178 10.5144 4.4687 13.8932 3.00134 18.3721C2.35748 20.333 2.17582 22.3844 2.46445 24.4156C2.74299 26.3806 3.45951 28.261 4.57164 29.9464C5.69386 31.6458 7.28837 33.1522 9.04235 34.1739C10.8771 35.2418 12.8026 35.819 14.9562 35.9437C15.6021 35.9819 29.6359 35.9819 30.0537 35.9437C33.0025 35.6782 35.7213 34.5137 37.883 32.5891C38.2059 32.3015 38.8296 31.672 39.0879 31.3743C40.8338 29.3531 41.9157 26.9558 42.2749 24.3131C42.3718 23.5971 42.4142 22.4387 42.3678 21.7408C42.3093 20.8659 42.1902 20.0896 41.9924 19.2771C40.8258 14.5187 37.1846 10.804 32.4454 9.53699C30.8731 9.11666 29.5773 9.00403 26.8364 9.04827C26.1138 9.06034 25.0562 9.06436 24.489 9.05632L23.4536 9.04425V7.08135V5.11844L23.609 5.038C24.3215 4.66593 24.8685 4.13297 25.0683 3.6161C25.2055 3.26213 25.2176 3.18973 25.2176 2.70503C25.2197 2.33498 25.2116 2.22235 25.1752 2.01721C25.0763 1.47822 24.8907 1.12626 24.5031 0.756207C24.1116 0.38213 23.6393 0.142799 23.1165 0.0502853C22.8985 0.0140839 22.4383 0.0140839 22.2123 0.0522957ZM25.805 13.1732C29.3836 13.2013 30.9357 13.2255 31.299 13.2637C33.0227 13.4447 34.6657 14.2351 35.9857 15.5162C37.3784 16.8697 38.2604 18.6034 38.4804 20.4134C38.5672 21.1455 38.5914 22.7584 38.5248 23.4302C38.3835 24.8259 38.0868 25.7631 37.453 26.823C36.0624 29.1499 34.1268 30.5256 31.6785 30.9318C30.9862 31.0465 30.8307 31.0525 28.7518 31.0726C27.6982 31.0847 24.9674 31.0867 22.6866 31.0807L18.5388 31.0686L16.6314 33.0396L14.7241 35.0105L14.714 33.0778L14.7039 31.145L14.6292 31.1289C14.5868 31.1209 14.278 31.0767 13.943 31.0324C12.954 30.9017 12.6452 30.8353 12.0497 30.6322C10.6833 30.1676 9.42382 29.343 8.49536 28.3053C7.30654 26.9799 6.59001 25.3649 6.38818 23.571C6.33368 23.0883 6.30946 22.1289 6.3357 21.5256C6.40836 19.7799 6.73736 18.5853 7.48214 17.3605C8.43279 15.7958 9.62364 14.6695 11.0506 13.9857C11.856 13.5996 12.6956 13.3683 13.6644 13.2637C14.4334 13.1812 20.7247 13.135 25.805 13.1732Z" fill="#9139D3"/>
<path d="M16.48 16.8959C15.6626 17.0065 15.0813 17.5394 14.8734 18.368C14.8169 18.5973 14.7826 19.7256 14.8108 20.4335C14.835 20.9986 14.8633 21.1495 15.0066 21.4532C15.1136 21.6804 15.1862 21.785 15.3558 21.966C15.6101 22.2355 15.9633 22.4246 16.3387 22.495C16.5809 22.5412 16.9947 22.5271 17.2268 22.4648C17.8202 22.3079 18.2582 21.9017 18.4964 21.2883C18.6296 20.9403 18.6377 20.8679 18.6377 19.6994C18.6397 18.5571 18.6356 18.5108 18.5145 18.1709C18.2844 17.5314 17.798 17.0829 17.1723 16.9341C16.9725 16.8858 16.6697 16.8697 16.48 16.8959Z" fill="#9139D3"/>
<path d="M27.9969 16.8959C27.9243 16.9039 27.8011 16.9321 27.7244 16.9562C27.0705 17.1533 26.6143 17.634 26.4145 18.3379C26.3721 18.4887 26.3701 18.5209 26.3701 19.6894V20.886L26.4246 21.0791C26.6224 21.7971 27.1068 22.2918 27.7971 22.4789C27.9949 22.5332 28.5136 22.5292 28.7457 22.4688C28.9839 22.4105 29.1454 22.3401 29.3392 22.2114C29.6944 21.9781 29.9487 21.608 30.0617 21.1575C30.1707 20.7211 30.2293 19.9408 30.1949 19.3455C30.1465 18.4626 30.0516 18.0563 29.8115 17.6923C29.434 17.1131 28.7235 16.8013 27.9969 16.8959Z" fill="#9139D3"/>
<path d="M1.5945 19.9126C0.795223 20.1258 0.211912 20.8177 0.0504415 21.7428C-0.0424039 22.2637 0.0524599 23.034 0.270445 23.5508C0.553018 24.2165 1.05761 24.6248 1.66111 24.6711L1.81652 24.6831V22.2758C1.81652 19.9971 1.8145 19.8704 1.78221 19.8724C1.76203 19.8724 1.67725 19.8905 1.5945 19.9126Z" fill="#9139D3"/>
<path d="M42.9349 22.2979L42.941 24.7073L43.0116 24.7012C43.1327 24.6872 43.4173 24.5987 43.5627 24.5243C43.7645 24.4237 43.8695 24.3473 44.043 24.1763C44.4346 23.7882 44.6607 23.2271 44.7051 22.5292C44.7515 21.8293 44.6062 21.1917 44.2933 20.7252C44.1016 20.4355 43.8594 20.2203 43.5647 20.0735C43.4093 19.9951 43.0722 19.8905 42.9753 19.8905H42.9309L42.9349 22.2979Z" fill="#9139D3"/>
</g>
<defs>
<clipPath id="clip0_161_6">
<rect width="44.7273" height="36" fill="white"/>
</clipPath>
</defs>
</svg>
